<svg width="351" height="59" viewBox="0 0 351 59" fill="none" xmlns="http://www.w3.org/2000/svg">
<path d="M3.04127 10.3636H10.6444V23.1977H29.6219V10.3636H37.2251V44H29.6219V30.0102H10.6444V44H3.04127V10.3636ZM43.3143 10.3636H50.9174V44H43.3143V10.3636ZM76.8053 24.4751H92.6807V44H87.9363L86.9023 41.3845C83.6785 43.635 80.2115 44.8516 75.163 44.8516C64.5794 44.8516 56.368 38.0999 56.368 27.2122C56.368 16.3245 64.5794 9.57287 75.163 9.57287C82.9486 9.57287 88.2404 12.3708 92.0724 18.0884L86.0507 21.4946C83.3744 18.0276 80.5764 16.507 75.0413 16.507C68.2897 16.507 63.9103 20.5823 63.9103 27.2122C63.9103 33.8422 68.2897 37.9175 75.0413 37.9175C79.8465 37.9175 82.6445 37.0051 85.3816 34.8762V31.0442L76.8053 30.7401V24.4751ZM118.92 24.4751H134.795V44H130.051L129.017 41.3845C125.793 43.635 122.326 44.8516 117.277 44.8516C106.694 44.8516 98.4824 38.0999 98.4824 27.2122C98.4824 16.3245 106.694 9.57287 117.277 9.57287C125.063 9.57287 130.355 12.3708 134.187 18.0884L128.165 21.4946C125.489 18.0276 122.691 16.507 117.156 16.507C110.404 16.507 106.025 20.5823 106.025 27.2122C106.025 33.8422 110.404 37.9175 117.156 37.9175C121.961 37.9175 124.759 37.0051 127.496 34.8762V31.0442L118.92 30.7401V24.4751ZM174.355 14.5605L170.705 20.1565C166.752 17.4193 162.737 16.3245 157.385 16.3245C150.815 16.3245 149.234 18.0276 149.234 19.9132C149.234 21.8596 150.998 22.3462 153.613 22.6503L163.71 23.806C170.888 24.6576 175.328 27.6988 175.328 33.903C175.328 41.4453 167.968 44.8516 157.871 44.8516C150.998 44.8516 145.828 43.3917 140.475 39.4381L144.064 33.538C148.687 36.7618 153.188 38.2216 158.723 38.2216C164.075 38.2216 167.968 36.8834 167.968 34.0246C167.968 32.1999 166.995 31.2875 164.136 30.9834L152.823 29.7061C145.949 28.9153 141.752 26.239 141.752 19.974C141.752 12.8574 148.808 9.57287 157.385 9.57287C163.65 9.57287 169.124 10.6677 174.355 14.5605Z" fill="white"/>
<circle cx="182.524" cy="29.4999" r="4.52381" fill="#386FDE"/>
<path d="M190.089 44V10.3636H220.927V17.2369H197.692V24.2318H218.251V31.105H197.692V44H190.089ZM225.966 10.3636H233.569V44H225.966V10.3636ZM239.628 10.3636H270.163V17.2369H247.231V23.441H267.851V30.3143H247.231V37.0051H271.014V44H239.628V10.3636ZM276.694 10.3636H284.297V37.1267H307.471V44H276.694V10.3636ZM312.155 10.3636H329.491C338.736 10.3636 347.616 17.0544 347.616 27.1514C347.616 37.2484 338.736 44 329.491 44H312.155V10.3636ZM319.758 17.2369V37.0659H329.491C335.573 37.0659 340.013 32.9298 340.013 27.1514C340.013 21.373 335.573 17.2369 329.491 17.2369H319.758Z" fill="white"/>
</svg>
