<svg width="195" height="33" viewBox="0 0 195 33" fill="none" xmlns="http://www.w3.org/2000/svg">
<path d="M1.6807 6.41146H5.88245V13.504H16.37V6.41146H20.5718V25H16.37V17.2688H5.88245V25H1.6807V6.41146ZM23.9368 6.41146H28.1386V25H23.9368V6.41146ZM42.445 14.2099H51.2183V25H48.5964L48.0249 23.5546C46.2434 24.7983 44.3274 25.4706 41.5374 25.4706C35.6886 25.4706 31.1507 21.7394 31.1507 15.7225C31.1507 9.70564 35.6886 5.97448 41.5374 5.97448C45.84 5.97448 48.7644 7.52073 50.8821 10.6804L47.5543 12.5628C46.0753 10.6468 44.5291 9.80648 41.4702 9.80648C37.7391 9.80648 35.3188 12.0586 35.3188 15.7225C35.3188 19.3865 37.7391 21.6386 41.4702 21.6386C44.1257 21.6386 45.672 21.1344 47.1846 19.9579V17.8402L42.445 17.6722V14.2099ZM65.7188 14.2099H74.492V25H71.8701L71.2987 23.5546C69.5171 24.7983 67.6011 25.4706 64.8112 25.4706C58.9623 25.4706 54.4245 21.7394 54.4245 15.7225C54.4245 9.70564 58.9623 5.97448 64.8112 5.97448C69.1138 5.97448 72.0382 7.52073 74.1559 10.6804L70.8281 12.5628C69.3491 10.6468 67.8028 9.80648 64.744 9.80648C61.0128 9.80648 58.5926 12.0586 58.5926 15.7225C58.5926 19.3865 61.0128 21.6386 64.744 21.6386C67.3995 21.6386 68.9457 21.1344 70.4583 19.9579V17.8402L65.7188 17.6722V14.2099ZM96.354 8.73083L94.3371 11.8233C92.1522 10.3107 89.9337 9.70564 86.9757 9.70564C83.3454 9.70564 82.4714 10.6468 82.4714 11.6889C82.4714 12.7645 83.4462 13.0334 84.8916 13.2015L90.4715 13.8402C94.438 14.3108 96.8918 15.9915 96.8918 19.4201C96.8918 23.5882 92.8245 25.4706 87.2446 25.4706C83.4462 25.4706 80.589 24.6639 77.631 22.479L79.6142 19.2184C82.1689 20.9999 84.6563 21.8067 87.7152 21.8067C90.6732 21.8067 92.8245 21.0672 92.8245 19.4873C92.8245 18.4789 92.2867 17.9747 90.7068 17.8066L84.4546 17.1007C80.6562 16.6637 78.3369 15.1847 78.3369 11.7225C78.3369 7.78964 82.2361 5.97448 86.9757 5.97448C90.4379 5.97448 93.4632 6.57953 96.354 8.73083Z" fill="white"/>
<circle cx="101.5" cy="16.5" r="2.5" fill="#386FDE"/>
<path d="M105.681 25V6.41146H122.723V10.2098H109.882V14.0755H121.244V17.8738H109.882V25H105.681ZM125.508 6.41146H129.709V25H125.508V6.41146ZM133.058 6.41146H149.932V10.2098H137.259V13.6385H148.655V17.4369H137.259V21.1344H150.403V25H133.058V6.41146ZM153.541 6.41146H157.743V21.2016H170.55V25H153.541V6.41146ZM173.138 6.41146H182.718C187.828 6.41146 192.735 10.109 192.735 15.6889C192.735 21.2688 187.828 25 182.718 25H173.138V6.41146ZM177.34 10.2098V21.168H182.718C186.08 21.168 188.534 18.8823 188.534 15.6889C188.534 12.4956 186.08 10.2098 182.718 10.2098H177.34Z" fill="white"/>
</svg>
